<svg width="182" height="154" viewBox="0 0 182 154" fill="none" xmlns="http://www.w3.org/2000/svg">
<g clip-path="url(#clip0_635_4345)">
<path d="M139.764 142.864H57.348C56.8371 142.863 56.3473 142.66 55.986 142.298C55.6247 141.937 55.4215 141.446 55.4209 140.935V84.5914C55.4215 84.0799 55.6247 83.5895 55.986 83.2277C56.3473 82.866 56.8371 82.6626 57.348 82.662H139.764C140.275 82.6626 140.764 82.866 141.126 83.2277C141.487 83.5895 141.69 84.0799 141.691 84.5914V140.935C141.69 141.446 141.487 141.937 141.126 142.298C140.764 142.66 140.275 142.863 139.764 142.864Z" fill="white"/>
<path d="M139.764 142.864H57.348C56.8371 142.863 56.3473 142.66 55.986 142.298C55.6247 141.937 55.4215 141.446 55.4209 140.935V84.5914C55.4215 84.0799 55.6247 83.5895 55.986 83.2277C56.3473 82.866 56.8371 82.6626 57.348 82.662H139.764C140.275 82.6626 140.764 82.866 141.126 83.2277C141.487 83.5895 141.69 84.0799 141.691 84.5914V140.935C141.69 141.446 141.487 141.937 141.126 142.298C140.764 142.66 140.275 142.863 139.764 142.864ZM57.348 83.0907C56.9506 83.0912 56.5697 83.2494 56.2887 83.5308C56.0077 83.8121 55.8496 84.1935 55.8492 84.5914V140.935C55.8496 141.332 56.0077 141.714 56.2887 141.995C56.5697 142.277 56.9506 142.435 57.348 142.435H139.764C140.161 142.435 140.542 142.277 140.823 141.995C141.104 141.714 141.262 141.332 141.263 140.935V84.5914C141.262 84.1935 141.104 83.8121 140.823 83.5308C140.542 83.2494 140.161 83.0912 139.764 83.0907H57.348Z" fill="#3F3D56"/>
<path d="M108.096 142.525H89.0156V110.9C89.0165 110.15 89.3145 109.431 89.8442 108.9C90.374 108.37 91.0922 108.072 91.8414 108.071H105.27C106.019 108.072 106.738 108.37 107.267 108.9C107.797 109.431 108.095 110.15 108.096 110.9V142.525Z" fill="#BDBDBD"/>
<path d="M135.269 70.6519H124.373V52.4204C124.373 51.9088 124.576 51.4184 124.938 51.0567C125.299 50.695 125.789 50.4916 126.3 50.491H133.342C133.853 50.4916 134.343 50.695 134.704 51.0567C135.065 51.4184 135.268 51.9088 135.269 52.4204V70.6519Z" fill="white"/>
<path d="M135.269 70.6519H124.373V52.4204C124.373 51.9088 124.576 51.4184 124.938 51.0567C125.299 50.695 125.789 50.4916 126.3 50.491H133.342C133.853 50.4916 134.343 50.695 134.704 51.0567C135.065 51.4184 135.268 51.9088 135.269 52.4204V70.6519ZM124.801 70.2232H134.841V52.4204C134.84 52.0225 134.682 51.6411 134.401 51.3597C134.12 51.0784 133.739 50.9202 133.342 50.9197H126.3C125.902 50.9202 125.521 51.0784 125.24 51.3597C124.959 51.6411 124.801 52.0225 124.801 52.4204V70.2232Z" fill="#3F3D56"/>
<path d="M73.8351 78.329C85.4234 78.329 94.8176 68.9238 94.8176 57.3218C94.8176 45.7198 85.4234 36.3146 73.8351 36.3146C62.2467 36.3146 52.8525 45.7198 52.8525 57.3218C52.8525 68.9238 62.2467 78.329 73.8351 78.329Z" fill="#F2F2F2"/>
<path d="M130.147 47.2948C128.258 47.2353 126.576 45.5098 126.562 43.6169C126.549 41.7241 128.206 39.9747 130.095 39.8882C134.3 39.6957 137.743 35.1774 136.818 31.0658C135.892 26.9542 130.846 24.3511 126.965 25.9829C123.987 27.2347 120.979 23.2906 121.733 20.1469C122.488 17.0033 125.344 14.8924 127.986 13.0335C130.628 11.1746 133.454 8.99204 134.092 5.82258C134.73 2.65313 131.465 -1.14352 128.589 0.325657" fill="#BDBDBD"/>
<path d="M80.9568 117.257H64.8394C64.1965 117.257 63.5802 117.001 63.1256 116.545C62.671 116.09 62.4153 115.473 62.4146 114.83V101.527C62.4153 100.883 62.671 100.266 63.1256 99.8107C63.5802 99.3556 64.1965 99.0996 64.8394 99.0989H80.9568C81.5997 99.0996 82.216 99.3556 82.6706 99.8107C83.1252 100.266 83.3809 100.883 83.3816 101.527V114.83C83.3809 115.473 83.1252 116.09 82.6706 116.545C82.216 117.001 81.5997 117.257 80.9568 117.257Z" fill="#BDBDBD"/>
<path d="M132.646 117.257H116.528C115.885 117.257 115.269 117.001 114.815 116.545C114.36 116.09 114.104 115.473 114.104 114.83V101.527C114.104 100.883 114.36 100.266 114.815 99.8107C115.269 99.3556 115.885 99.0996 116.528 99.0989H132.646C133.289 99.0996 133.905 99.3556 134.36 99.8107C134.814 100.266 135.07 100.883 135.071 101.527V114.83C135.07 115.473 134.814 116.09 134.36 116.545C133.905 117.001 133.289 117.257 132.646 117.257Z" fill="#BDBDBD"/>
<path d="M49.2681 83.8208V75.152C49.2681 74.486 49.4439 73.832 49.7777 73.256C50.1115 72.68 50.5915 72.2026 51.169 71.8722L99.2779 44.3431C99.875 44.0014 100.554 43.8296 101.242 43.8463C101.929 43.863 102.599 44.0676 103.179 44.4379L146.1 71.8461C146.635 72.1875 147.075 72.6583 147.38 73.215C147.685 73.7716 147.845 74.3963 147.845 75.0311V83.8208C147.845 84.8227 147.447 85.7836 146.739 86.492C146.032 87.2005 145.072 87.5985 144.071 87.5985H53.0413C52.0406 87.5985 51.0808 87.2005 50.3732 86.492C49.6656 85.7836 49.2681 84.8227 49.2681 83.8208Z" fill="#E94165"/>
<path opacity="0.2" d="M144.071 83.739H53.0413C52.0406 83.739 51.0808 83.341 50.3732 82.6325C49.6656 81.9241 49.2681 80.9632 49.2681 79.9613V83.3914C49.2681 84.3933 49.6656 85.3541 50.3732 86.0626C51.0808 86.771 52.0406 87.169 53.0413 87.1691H144.071C145.072 87.169 146.032 86.771 146.739 86.0626C147.447 85.3541 147.845 84.3933 147.845 83.3914V79.9613C147.845 80.9632 147.447 81.9241 146.739 82.6325C146.032 83.341 145.072 83.739 144.071 83.739Z" fill="black"/>
<path d="M151.462 113.404C151.462 106.756 156.845 90.9812 163.485 90.9812C170.125 90.9812 175.507 106.756 175.507 113.404C175.507 116.596 174.241 119.658 171.986 121.915C169.731 124.172 166.673 125.441 163.485 125.441C160.296 125.441 157.238 124.172 154.983 121.915C152.729 119.658 151.462 116.596 151.462 113.404Z" fill="#F2F2F2"/>
<path d="M163.485 142.608C163.428 142.608 163.373 142.586 163.333 142.545C163.293 142.505 163.271 142.451 163.271 142.394V99.1729C163.271 99.116 163.293 99.0615 163.333 99.0213C163.373 98.9811 163.428 98.9585 163.485 98.9585C163.541 98.9585 163.596 98.9811 163.636 99.0213C163.676 99.0615 163.699 99.116 163.699 99.1729V142.394C163.699 142.451 163.676 142.505 163.636 142.545C163.596 142.586 163.541 142.608 163.485 142.608Z" fill="#3F3D56"/>
<path d="M163.485 118.339C163.443 118.339 163.402 118.327 163.367 118.304C163.332 118.281 163.304 118.248 163.288 118.21C163.271 118.171 163.266 118.128 163.274 118.087C163.281 118.046 163.301 118.008 163.33 117.977L169.441 111.556C169.461 111.536 169.484 111.519 169.51 111.508C169.535 111.497 169.563 111.49 169.591 111.49C169.619 111.489 169.647 111.494 169.673 111.504C169.7 111.514 169.724 111.53 169.744 111.549C169.764 111.568 169.781 111.592 169.792 111.617C169.803 111.643 169.81 111.671 169.81 111.699C169.811 111.727 169.806 111.755 169.796 111.781C169.786 111.808 169.771 111.832 169.751 111.852L163.64 118.273C163.62 118.294 163.596 118.311 163.569 118.322C163.542 118.334 163.514 118.34 163.485 118.339Z" fill="#3F3D56"/>
<path d="M163.484 107.514C163.431 107.514 163.379 107.494 163.34 107.458L158.058 102.623C158.038 102.604 158.021 102.581 158.009 102.556C157.997 102.53 157.99 102.503 157.989 102.474C157.987 102.446 157.991 102.418 158.001 102.391C158.011 102.365 158.025 102.341 158.044 102.32C158.063 102.299 158.086 102.282 158.112 102.27C158.137 102.258 158.165 102.252 158.193 102.25C158.221 102.249 158.249 102.253 158.276 102.263C158.302 102.273 158.327 102.288 158.347 102.307L163.629 107.141C163.661 107.17 163.683 107.209 163.693 107.251C163.703 107.293 163.7 107.337 163.684 107.377C163.668 107.417 163.641 107.452 163.605 107.476C163.57 107.501 163.528 107.514 163.484 107.514Z" fill="#3F3D56"/>
<path d="M4.7168 100.177C4.7168 90.3979 12.635 67.1926 22.4026 67.1926C32.1702 67.1926 40.0884 90.3979 40.0884 100.177C40.0884 104.873 38.2251 109.377 34.9084 112.698C31.5916 116.018 27.0932 117.884 22.4026 117.884C17.712 117.884 13.2136 116.018 9.89685 112.698C6.58012 109.377 4.7168 104.873 4.7168 100.177Z" fill="#E94165"/>
<path d="M22.4026 143.037C22.3458 143.037 22.2914 143.014 22.2512 142.974C22.211 142.934 22.1885 142.879 22.1885 142.823V79.2427C22.1885 79.1858 22.211 79.1313 22.2512 79.0911C22.2913 79.0509 22.3458 79.0283 22.4026 79.0283C22.4594 79.0283 22.5139 79.0509 22.554 79.0911C22.5942 79.1313 22.6167 79.1858 22.6167 79.2427V142.823C22.6167 142.879 22.5942 142.934 22.554 142.974C22.5139 143.014 22.4594 143.037 22.4026 143.037Z" fill="#3F3D56"/>
<path d="M22.4026 107.337C22.3607 107.337 22.3197 107.324 22.2847 107.301C22.2497 107.278 22.2223 107.245 22.2058 107.207C22.1893 107.168 22.1844 107.125 22.1919 107.084C22.1993 107.043 22.2187 107.005 22.2476 106.974L31.238 97.5288C31.2772 97.4876 31.3311 97.4637 31.3879 97.4623C31.4447 97.461 31.4997 97.4822 31.5408 97.5215C31.5819 97.5607 31.6058 97.6147 31.6072 97.6715C31.6085 97.7284 31.5873 97.7834 31.5481 97.8246L22.5576 107.27C22.5376 107.291 22.5136 107.308 22.4869 107.319C22.4603 107.331 22.4316 107.337 22.4026 107.337Z" fill="#3F3D56"/>
<path d="M22.4026 91.4117C22.3491 91.4118 22.2976 91.3918 22.2581 91.3556L14.4886 84.2436C14.4467 84.2052 14.4217 84.1517 14.4192 84.0949C14.4166 84.0381 14.4367 83.9827 14.475 83.9407C14.5134 83.8987 14.5668 83.8737 14.6235 83.8712C14.6802 83.8686 14.7357 83.8888 14.7776 83.9271L22.5471 91.0392C22.579 91.0684 22.6013 91.1065 22.6111 91.1486C22.6209 91.1906 22.6178 91.2347 22.6022 91.275C22.5866 91.3153 22.5592 91.3499 22.5235 91.3743C22.4879 91.3987 22.4457 91.4117 22.4026 91.4117Z" fill="#3F3D56"/>
<path d="M155.086 142.587C155.106 142.603 155.128 142.617 155.148 142.632H172.559C172.9 141.248 173.02 139.863 172.511 138.66C171.785 136.946 169.636 135.876 167.928 136.612C167.523 136.791 167.17 137.07 166.903 137.423C166.235 136.227 165.038 135.325 163.656 135.326C161.924 135.327 160.484 136.745 160.014 138.383C159.258 137.104 157.763 136.21 156.302 136.595C153.859 137.238 153.087 141.04 155.086 142.587Z" fill="#BDBDBD"/>
<path d="M5.51164 142.97C5.55252 143.001 5.5957 143.03 5.6371 143.061H40.7843C41.473 140.267 41.7162 137.471 40.6875 135.042C39.2217 131.581 34.884 129.421 31.4354 130.907C30.6183 131.269 29.9066 131.833 29.3671 132.546C28.0194 130.13 25.6019 128.309 22.8115 128.311C19.3155 128.314 16.4089 131.176 15.4602 134.482C13.9328 131.901 10.9157 130.097 7.96666 130.873C3.03434 132.171 1.47639 139.848 5.51164 142.97Z" fill="#BDBDBD"/>
<path d="M181.999 142.436L0 142.781L0.0008103 143.21L182 142.865L181.999 142.436Z" fill="#3F3D56"/>
<path d="M61.4144 133.711C61.4578 133.542 61.4636 133.365 61.4314 133.193C61.3991 133.021 61.3296 132.858 61.2277 132.716C61.1259 132.574 60.9941 132.456 60.8417 132.37C60.6894 132.285 60.5201 132.234 60.3458 132.221L53.5458 123.709L51.8633 125.279L59.0467 133.41C59.0442 133.704 59.1497 133.989 59.3432 134.211C59.5367 134.433 59.8048 134.576 60.0966 134.613C60.3885 134.651 60.6838 134.579 60.9267 134.413C61.1695 134.247 61.3431 133.997 61.4144 133.711Z" fill="#FFB8B8"/>
<path d="M54.8505 125.061L52.7014 126.709C52.6403 126.755 52.5698 126.789 52.4947 126.806C52.4196 126.823 52.3417 126.824 52.2663 126.808C52.1909 126.792 52.1198 126.76 52.0578 126.715C51.9957 126.669 51.9443 126.61 51.9069 126.543L50.5978 124.18C50.3601 123.866 50.2567 123.47 50.3102 123.079C50.3637 122.688 50.5698 122.334 50.8833 122.095C51.1968 121.857 51.5922 121.752 51.9827 121.804C52.3732 121.857 52.727 122.062 52.9665 122.375L54.8978 124.25C54.9531 124.303 54.9961 124.368 55.024 124.44C55.052 124.512 55.0641 124.589 55.0596 124.666C55.0551 124.743 55.0341 124.818 54.998 124.886C54.9619 124.954 54.9116 125.014 54.8505 125.061Z" fill="#3F3D56"/>
<path d="M51.2411 119.923C52.7503 119.923 53.9738 118.698 53.9738 117.187C53.9738 115.676 52.7503 114.451 51.2411 114.451C49.7318 114.451 48.5083 115.676 48.5083 117.187C48.5083 118.698 49.7318 119.923 51.2411 119.923Z" fill="#FFB8B8"/>
<path d="M57.0744 152.676H58.4386L58.3086 150.12H56.2954L57.0744 152.676Z" fill="#FFB8B8"/>
<path d="M56.7266 152.23L59.4129 152.23C59.6377 152.23 59.8605 152.275 60.0682 152.361C60.2759 152.447 60.4646 152.573 60.6236 152.732C60.7825 152.891 60.9086 153.08 60.9947 153.288C61.0807 153.496 61.125 153.719 61.125 153.944V154L56.7266 154L56.7266 152.23Z" fill="#2F2E41"/>
<path d="M42.5308 150.743L43.6913 151.46L44.9225 149.217L43.5183 148.338L42.5308 150.743Z" fill="#FFB8B8"/>
<path d="M42.469 150.18L44.7544 151.594C44.9457 151.712 45.1119 151.867 45.2434 152.049C45.3749 152.232 45.4692 152.439 45.5209 152.658C45.5726 152.877 45.5807 153.104 45.5447 153.326C45.5087 153.548 45.4294 153.761 45.3113 153.953L45.282 154L41.54 151.686L42.469 150.18Z" fill="#2F2E41"/>
<path d="M56.9761 151.927C56.8747 151.927 56.7757 151.896 56.6923 151.838C56.6088 151.78 56.5449 151.698 56.509 151.604L51.5749 139.793C51.5643 139.764 51.5459 139.738 51.5218 139.719C51.4977 139.7 51.4689 139.688 51.4384 139.685C51.4079 139.681 51.377 139.686 51.349 139.698C51.3211 139.711 51.2972 139.731 51.28 139.757L44.5014 150.448C44.4351 150.547 44.3353 150.62 44.2202 150.652C44.105 150.684 43.9822 150.673 43.8741 150.622L42.9465 150.189C42.8277 150.133 42.7356 150.032 42.6898 149.909C42.644 149.786 42.6482 149.65 42.7014 149.53L48.2549 137.136C48.1337 136.84 46.9509 133.808 48.7682 132.309L48.7809 132.302L53.7087 130.101L53.833 133.885L58.7446 150.947C58.7631 151.012 58.7686 151.079 58.7608 151.145C58.7529 151.212 58.7319 151.276 58.699 151.334C58.666 151.392 58.6218 151.443 58.5689 151.483C58.516 151.524 58.4555 151.554 58.3909 151.571L57.1044 151.91C57.0625 151.921 57.0194 151.927 56.9761 151.927Z" fill="#2F2E41"/>
<path d="M53.7832 124.565C53.5955 123.811 53.3295 123.051 52.9731 122.7C52.842 122.572 52.7189 122.436 52.6043 122.293C52.3645 121.991 52.0629 121.744 51.7196 121.568C51.8452 121.498 51.9188 121.414 51.9188 121.324C51.9188 121.078 51.3709 120.879 50.6949 120.879C50.019 120.879 49.471 121.078 49.471 121.324C49.4727 121.353 49.48 121.381 49.4924 121.407C49.5049 121.432 49.5224 121.455 49.5438 121.474C49.1024 121.655 48.7188 121.953 48.4349 122.336C48.151 122.719 47.9776 123.173 47.9336 123.648C47.7755 125.343 47.7293 127.51 48.2833 128.88C48.748 130.014 48.7849 131.277 48.3873 132.436C48.3603 132.517 48.357 132.603 48.3778 132.686C48.3985 132.768 48.4425 132.843 48.5044 132.901C48.5663 132.96 48.6436 132.999 48.7272 133.015C48.8107 133.03 48.897 133.022 48.9757 132.99L53.8654 131.017C53.9477 130.984 54.0183 130.926 54.0679 130.853C54.1176 130.779 54.1441 130.692 54.1441 130.604V127.607C54.148 126.582 54.0268 125.56 53.7832 124.565Z" fill="#3F3D56"/>
<path d="M44.4275 136.905C44.5977 136.866 44.7571 136.789 44.8946 136.681C45.0322 136.573 45.1443 136.437 45.2233 136.28C45.3023 136.124 45.3461 135.953 45.3517 135.778C45.3573 135.603 45.3246 135.429 45.2558 135.268L49.0816 125.168L47.1414 124.666L43.6028 134.663C43.3406 134.797 43.1365 135.022 43.0292 135.296C42.9218 135.57 42.9187 135.874 43.0203 136.151C43.122 136.427 43.3213 136.657 43.5807 136.796C43.84 136.935 44.1413 136.974 44.4275 136.905Z" fill="#FFB8B8"/>
<path d="M49.0659 127.084L46.6144 125.935C46.5446 125.903 46.4827 125.855 46.4329 125.796C46.3831 125.738 46.3465 125.669 46.3257 125.594C46.3048 125.52 46.3002 125.442 46.3121 125.366C46.324 125.29 46.3522 125.217 46.3947 125.153L47.8846 122.9C48.054 122.544 48.3573 122.27 48.7281 122.138C49.099 122.005 49.5071 122.026 49.8632 122.194C50.2193 122.362 50.4943 122.664 50.6281 123.035C50.7619 123.406 50.7435 123.814 50.577 124.172L49.8066 126.752C49.7845 126.826 49.7468 126.894 49.696 126.952C49.6452 127.01 49.5825 127.056 49.5122 127.088C49.4419 127.119 49.3657 127.135 49.2887 127.135C49.2116 127.134 49.1357 127.117 49.0659 127.084Z" fill="#3F3D56"/>
<path d="M53.7516 116.513C53.8749 116.528 53.9997 116.505 54.1101 116.448C54.3117 116.316 54.2918 116.016 54.2236 115.785C54.0537 115.23 53.7469 114.727 53.3317 114.323C52.9165 113.918 52.4062 113.625 51.8479 113.47C51.4588 113.367 50.9666 113.371 50.744 113.706C50.1847 113.333 49.5104 113.173 48.8434 113.255C48.1763 113.337 47.5607 113.656 47.1082 114.153C46.666 114.673 46.3712 115.302 46.2546 115.974C46.0211 117.12 45.0211 119.482 45.5751 120.511C45.9437 121.196 47.6402 120.663 48.3578 120.961C48.7152 121.117 49.1054 121.182 49.4939 121.15C49.8824 121.119 50.2572 120.992 50.585 120.781C50.9059 120.559 51.147 120.24 51.2729 119.871C51.3987 119.501 51.4026 119.101 51.284 118.73C51.1584 118.456 51.0135 118.192 50.8506 117.94C50.6869 117.684 50.6202 117.378 50.6624 117.077C50.7628 116.62 52.9198 116.496 53.7516 116.513Z" fill="#2F2E41"/>
</g>
<defs>
<clipPath id="clip0_635_4345">
<rect width="182" height="154" fill="white"/>
</clipPath>
</defs>
</svg>
